PathFileType	4	(X/Y/Z)	/Users/itak/Documents/Research/Walk-IL/dataset/trc/00428_00167.trc
DataRate	CameraRate	NumFrames	NumMarkers	Units	OrigDataRate	OrigDataStartFrame	OrigNumFrames
100.000000	100.000000	4	53	mm	100.000000	687	786
Frame#	Time	RPSI			LPSI			L3			STRN			T10			C7			CLAV			RBAK			LBAK			LSHO			LUPA			LAEL			LAOL			LWTS			LWPS			LFRA			LIFD			LHPS			LHTS			RSHO			RUPA			RAEL			RAOL			RWTS			RWPS			RFRA			RIFD			RHTS			RHPS			RBHD			LFHD			RFHD			LBHD			LHIP			RHIP			RASI			LASI			LKNE			LTHI			LANK			LTIP			LTOE			LMT1			LMT5			LHEE			RKNE			RTHI			RANK			RTIP			RTOE			RMT1			RMT5			RHEE			
		X1	Y1	Z1	X2	Y2	Z2	X3	Y3	Z3	X4	Y4	Z4	X5	Y5	Z5	X6	Y6	Z6	X7	Y7	Z7	X8	Y8	Z8	X9	Y9	Z9	X10	Y10	Z10	X11	Y11	Z11	X12	Y12	Z12	X13	Y13	Z13	X14	Y14	Z14	X15	Y15	Z15	X16	Y16	Z16	X17	Y17	Z17	X18	Y18	Z18	X19	Y19	Z19	X20	Y20	Z20	X21	Y21	Z21	X22	Y22	Z22	X23	Y23	Z23	X24	Y24	Z24	X25	Y25	Z25	X26	Y26	Z26	X27	Y27	Z27	X28	Y28	Z28	X29	Y29	Z29	X30	Y30	Z30	X31	Y31	Z31	X32	Y32	Z32	X33	Y33	Z33	X34	Y34	Z34	X35	Y35	Z35	X36	Y36	Z36	X37	Y37	Z37	X38	Y38	Z38	X39	Y39	Z39	X40	Y40	Z40	X41	Y41	Z41	X42	Y42	Z42	X43	Y43	Z43	X44	Y44	Z44	X45	Y45	Z45	X46	Y46	Z46	X47	Y47	Z47	X48	Y48	Z48	X49	Y49	Z49	X50	Y50	Z50	X51	Y51	Z51	X52	Y52	Z52	X53	Y53	Z53	

688	6.87	943.5076904296875	965.7438354492188	1005.052307128906	1021.877746582031	964.1761474609375	887.5833129882812	988.3687744140625	1055.985229492188	967.5982055664062	1220.725219726562	1242.819702148438	1097.665649414062	972.0087890625	1179.405151367188	955.1876220703125	1021.818115234375	1446.77783203125	1001.519348144531	1191.070556640625	1356.7978515625	1077.715698242188	921.438232421875	1326.64501953125	1054.73583984375	1046.128540039062	1400.732666015625	896.3656616210938	1176.509399414062	1418.236328125	882.2349853515625	1223.57666015625	1301.837158203125	792.2109985351562	1273.336547851562	1089.95361328125	776.6073608398438	1175.053588867188	1063.121948242188	793.4993286132812	1355.225219726562	912.00830078125	876.73486328125	1347.865478515625	884.3112182617188	808.61669921875	1309.72265625	1008.156494140625	787.583740234375	1394.646240234375	749.5762939453125	901.0353393554688	1369.2783203125	807.6101684570312	825.1157836914062	1391.239624023438	829.1224975585938	888.826416015625	1009.401184082031	1410.832153320312	1177.726196289062	960.8118896484375	1348.999145507812	1238.095581054688	943.862060546875	1062.488891601562	1294.318359375	917.4332275390625	1042.853393554688	1234.3154296875	1064.679809570312	870.2151489257812	1318.30712890625	980.6525268554688	849.9564208984375	1332.722778320312	945.1778564453125	1004.714172363281	1306.199462890625	1070.973876953125	710.7217407226562	1334.422119140625	1076.5458984375	771.296875	1342.387573242188	1001.608520507812	764.8067626953125	1345.371948242188	1051.574340820312	1640.046997070312	1111.338623046875	1246.588745117188	1658.243408203125	1045.328491210938	1180.504516601562	1659.62451171875	1157.366333007812	1127.132690429688	1642.7939453125	950.9954833984375	1195.790771484375	853.2232055664062	861.463623046875	961.2742919921875	854.0083618164062	1179.699096679688	1082.88916015625	891.914794921875	1189.974243164062	1235.061401367188	888.0669555664062	982.3358764648438	1170.38330078125	429.3370666503906	897.4260864257812	1204.3828125	582.6128540039062	892.3912353515625	1118.598876953125	28.39278030395508	867.588134765625	1168.625610351562	276.6753540039062	890.2724609375	1231.8427734375	33.10747146606445	1072.2314453125	1159.046142578125	39.26844787597656	1039.888916015625	1236.581176757812	32.11307144165039	957.5731201171875	1046.091430664062	31.84588623046875	864.642333984375	989.216552734375	455.7503967285156	1177.62744140625	987.0454711914062	719.9977416992188	1215.45166015625	966.56103515625	34.43052291870117	1173.642333984375	981.81591796875	312.2845458984375	1194.65283203125	1173.704467773438	37.01111602783203	1247.128784179688	1137.6513671875	40.06135940551758	1182.27294921875	1067.299682617188	39.16606903076172	1263.422729492188	933.843994140625	23.41749572753906	1100.0869140625	
689	6.88	943.298828125	965.748291015625	1005.150756835938	1021.807800292969	964.18310546875	887.6981201171875	988.3352661132812	1056.115478515625	967.6534423828125	1220.65966796875	1242.807495117188	1097.981323242188	972.0482788085938	1179.515991210938	955.3199462890625	1021.806640625	1446.831176757812	1001.859924316406	1190.994384765625	1356.821533203125	1078.101440429688	921.3522338867188	1326.6943359375	1054.917114257812	1046.216064453125	1400.80322265625	896.7155151367188	1176.635864257812	1418.39013671875	882.6692504882812	1223.826782226562	1302.093383789062	792.5670776367188	1273.417236328125	1090.1494140625	776.655029296875	1175.025390625	1063.458129882812	793.4732666015625	1354.664916992188	911.3111572265625	875.811279296875	1347.174682617188	884.0286254882812	807.5406494140625	1309.531982421875	1008.147033691406	787.20458984375	1393.368286132812	748.559326171875	899.1436767578125	1368.251342773438	807.1383056640625	823.5885620117188	1390.333740234375	828.1964721679688	887.4156494140625	1009.224731445312	1410.72216796875	1177.985961914062	960.5494995117188	1348.712524414062	1238.170532226562	943.5110473632812	1062.063598632812	1293.628784179688	917.10009765625	1042.801391601562	1233.442016601562	1063.088500976562	868.8526000976562	1316.719360351562	978.875732421875	849.0061645507812	1330.811157226562	944.50439453125	1004.160095214844	1305.149536132812	1067.97705078125	708.9217529296875	1331.370483398438	1073.953002929688	769.246337890625	1339.61181640625	999.081298828125	763.5254516601562	1342.808959960938	1051.219360351562	1639.985107421875	1111.580688476562	1246.296752929688	1658.387084960938	1045.81494140625	1180.0869140625	1659.708129882812	1157.8046875	1126.980102539062	1642.809326171875	951.302490234375	1195.751953125	853.2991333007812	861.6618041992188	961.1751098632812	854.0128784179688	1179.705810546875	1082.658935546875	891.9222412109375	1190.080322265625	1234.853515625	888.056884765625	982.5440673828125	1170.417114257812	429.3832702636719	897.595703125	1204.392944335938	582.6614379882812	892.5684204101562	1118.571411132812	28.44955444335938	867.639892578125	1168.606079101562	276.649169921875	890.3491821289062	1231.883422851562	33.08321762084961	1072.23681640625	1159.057861328125	39.2614631652832	1039.919799804688	1236.603515625	32.10197830200195	957.5955200195312	1046.081420898438	31.89686584472656	864.72265625	989.134033203125	455.7327880859375	1177.647094726562	986.9409790039062	720.0001831054688	1215.453857421875	966.5433959960938	34.4102668762207	1173.621215820312	981.7968139648438	312.2677917480469	1194.678833007812	1173.692749023438	37.04463577270508	1247.133422851562	1137.643310546875	40.06235504150391	1182.27734375	1067.269897460938	39.19872665405273	1263.391235351562	933.84326171875	23.41494560241699	1100.073364257812	
690	6.890000000000001	943.1031494140625	965.725341796875	1005.230041503906	1021.768859863281	964.2118530273438	887.77197265625	988.3162841796875	1056.247436523438	967.6888427734375	1220.597045898438	1242.789794921875	1098.304443359375	972.0927124023438	1179.606567382812	955.4362182617188	1021.805847167969	1446.884887695312	1002.167846679688	1190.923095703125	1356.84326171875	1078.489624023438	921.2845458984375	1326.744140625	1055.044921875	1046.334228515625	1400.88232421875	897.0482177734375	1176.786865234375	1418.531005859375	883.1116333007812	1224.123168945312	1302.335693359375	792.9326782226562	1273.489501953125	1090.313354492188	776.7012329101562	1174.994140625	1063.783203125	793.4335327148438	1353.994018554688	910.4640502929688	874.7437744140625	1346.33349609375	883.6512451171875	806.3056640625	1309.297241210938	1008.079284667969	786.769287109375	1391.865600585938	747.3607177734375	896.9737548828125	1367.039916992188	806.55908203125	821.8421630859375	1389.252563476562	827.0902099609375	885.7918090820312	1009.057678222656	1410.612548828125	1178.219360351562	960.2461547851562	1348.427001953125	1238.1865234375	943.0275268554688	1061.6572265625	1292.88720703125	916.658935546875	1042.756713867188	1232.537353515625	1061.464965820312	867.5702514648438	1315.085205078125	977.1031494140625	848.1314086914062	1328.937744140625	943.7484741210938	1003.635498046875	1304.088745117188	1065.0595703125	707.2454223632812	1328.346069335938	1071.46923828125	767.4244995117188	1336.926879882812	996.6072387695312	762.2924194335938	1340.222412109375	1050.868896484375	1639.92333984375	1111.81787109375	1246.016723632812	1658.531372070312	1046.3115234375	1179.6572265625	1659.774291992188	1158.221801757812	1126.859985351562	1642.816650390625	951.6032104492188	1195.744384765625	853.3763427734375	861.8491821289062	961.0465698242188	854.0281982421875	1179.718017578125	1082.421020507812	891.9267578125	1190.179077148438	1234.653686523438	888.0379638671875	982.7443237304688	1170.434448242188	429.4250793457031	897.7525634765625	1204.408935546875	582.708984375	892.7335205078125	1118.545288085938	28.51352119445801	867.692626953125	1168.580688476562	276.6274108886719	890.416015625	1231.920288085938	33.04994583129883	1072.246704101562	1159.068725585938	39.25516510009766	1039.951538085938	1236.62353515625	32.09309005737305	957.6160888671875	1046.063110351562	31.94509506225586	864.8129272460938	989.0592651367188	455.7156982421875	1177.662719726562	986.8073120117188	720.0133056640625	1215.461303710938	966.5322265625	34.40036773681641	1173.605346679688	981.7843627929688	312.2521057128906	1194.697998046875	1173.690795898438	37.08114624023438	1247.136108398438	1137.635864257812	40.06359100341797	1182.280883789062	1067.234252929688	39.23876571655273	1263.354614257812	933.8399047851562	23.40989685058594	1100.058471679688	
691	6.9	942.926513671875	965.6884765625	1005.283020019531	1021.759704589844	964.2618408203125	887.80322265625	988.3074340820312	1056.3701171875	967.71240234375	1220.536865234375	1242.76806640625	1098.634521484375	972.1416625976562	1179.66650390625	955.5462646484375	1021.812561035156	1446.934936523438	1002.439819335938	1190.858154296875	1356.86279296875	1078.878295898438	921.2312622070312	1326.791748046875	1055.118774414062	1046.479614257812	1400.971801757812	897.3519287109375	1176.954223632812	1418.658447265625	883.5535888671875	1224.459838867188	1302.561767578125	793.302978515625	1273.554443359375	1090.445190429688	776.7426147460938	1174.968017578125	1064.098266601562	793.3733520507812	1353.2138671875	909.4769897460938	873.5381469726562	1345.344482421875	883.186767578125	804.9189453125	1309.015747070312	1007.955322265625	786.2777709960938	1390.145385742188	745.997314453125	894.5467529296875	1365.648315429688	805.883056640625	819.89111328125	1388.001953125	825.8182983398438	883.9660034179688	1008.895935058594	1410.510009765625	1178.434326171875	959.9174194335938	1348.14990234375	1238.165893554688	942.418701171875	1061.266479492188	1292.097900390625	916.1193237304688	1042.726806640625	1231.609741210938	1059.810424804688	866.3487548828125	1313.404541015625	975.3367919921875	847.3291015625	1327.109008789062	942.9049682617188	1003.142150878906	1303.019653320312	1062.259399414062	705.7382202148438	1325.413330078125	1069.103393554688	765.8355712890625	1334.365844726562	994.2108154296875	761.1369018554688	1337.647827148438	1050.520874023438	1639.864135742188	1112.047607421875	1245.750732421875	1658.672485351562	1046.816772460938	1179.219360351562	1659.825073242188	1158.619995117188	1126.772827148438	1642.81787109375	951.9039916992188	1195.762573242188	853.4522094726562	862.029052734375	960.884765625	854.0545654296875	1179.737548828125	1082.170166015625	891.9261474609375	1190.269897460938	1234.464599609375	888.013427734375	982.9369506835938	1170.431518554688	429.4605102539062	897.8960571289062	1204.424072265625	582.754638671875	892.8865356445312	1118.521728515625	28.58523368835449	867.743896484375	1168.551147460938	276.6121520996094	890.4757080078125	1231.952514648438	33.01042175292969	1072.258178710938	1159.079711914062	39.24922943115234	1039.984375	1236.640625	32.08578109741211	957.6350708007812	1046.036010742188	31.9919261932373	864.9051513671875	988.9935302734375	455.6996459960938	1177.672973632812	986.640625	720.03759765625	1215.47607421875	966.5269165039062	34.39863204956055	1173.591186523438	981.7794189453125	312.2384643554688	1194.706298828125	1173.695190429688	37.1209716796875	1247.135498046875	1137.629638671875	40.06533050537109	1182.282836914062	1067.193237304688	39.28713226318359	1263.313598632812	933.8350830078125	23.40286445617676	1100.041625976562	
